# xmcd CD database file
# Copyright (C) 1993-1996 Ti Kan
#
# Track frame offsets:
# 150
# 11468
# 23975
# 38018
# 48940
# 61140
# 74710
# 84050
# 97793
# 108828
#
# Disc length: 1599 seconds
#
# Revision: 0
# Processed by: cddbd v1.4b41PL1 Copyright (c) Steve Scherf et al.
# Submitted via: inCDius 1.1b5
#
DISCID=6b063d0a
DTITLE=George Jones - Greatest Hits - Volume 1
DYEAR=1900
DGENRE=
TTITLE0=Least Of All
TTITLE1=She's Just A Girl I used To Know
TTITLE2=It's Funny What A Fool Will Do
TTITLE3=Tender Years
TTITLE4=Take Me
TTITLE5=Things Have Gone To Pieces
TTITLE6=The Race Is On
TTITLE7=A Good Year For The Roses
TTITLE8=Say It's Not You
TTITLE9=You Comb Her Hair
EXTD=
EXTT0=
EXTT1=
EXTT2=
EXTT3=
EXTT4=
EXTT5=
EXTT6=
EXTT7=
EXTT8=
EXTT9=
PLAYORDER=
